<svg width="488" height="488" xmlns="http://www.w3.org/2000/svg">
    <g fill-rule="nonzero" fill="none">
        <path d="M243.685 487.37c134.583 0 243.685-109.102 243.685-243.685C487.37 109.101 378.268 0 243.685 0 109.101 0 0 109.101 0 243.685 0 378.268 109.101 487.37 243.685 487.37z" fill="#627EEA"/>
        <path fill-opacity=".602" fill="#FFF" d="M244.197 60.921v135.093l114.182 51.022z"/>
        <path fill="#FFF" d="M244.197 60.921L130 247.036l114.197-51.022z"/>
        <path fill-opacity=".602" fill="#FFF" d="M244.197 334.579v91.793l114.258-158.075z"/>
        <path fill="#FFF" d="M244.197 426.372v-91.808L130 268.297z"/>
        <path fill-opacity=".2" fill="#FFF" d="M244.197 313.335l114.182-66.298-114.182-50.991z"/>
        <path fill-opacity=".602" fill="#FFF" d="M130 247.037l114.197 66.298V196.046z"/>
    </g>
</svg>
